<mxfile host="app.diagrams.net" modified="2021-12-19T12:19:57.521Z" agent="5.0 (Windows NT 10.0; Win64; x64) AppleWebKit/537.36 (KHTML, like Gecko) Chrome/96.0.4664.110 Safari/537.36" etag="c_cU8kfYuZ37PgGz8ZI0" version="16.0.0" type="github">
  <diagram id="C5RBs43oDa-KdzZeNtuy" name="Page-1">
    <mxGraphModel dx="1662" dy="762" grid="1" gridSize="10" guides="1" tooltips="1" connect="1" arrows="1" fold="1" page="1" pageScale="1" pageWidth="827" pageHeight="1169" math="0" shadow="0">
      <root>
        <mxCell id="WIyWlLk6GJQsqaUBKTNV-0" />
        <mxCell id="WIyWlLk6GJQsqaUBKTNV-1" parent="WIyWlLk6GJQsqaUBKTNV-0" />
        <mxCell id="WZ-kVXEVeXFs6_7SI9vU-0" value="Product" style="swimlane;fontStyle=1;align=center;verticalAlign=top;childLayout=stackLayout;horizontal=1;startSize=26;horizontalStack=0;resizeParent=1;resizeParentMax=0;resizeLast=0;collapsible=1;marginBottom=0;" vertex="1" parent="WIyWlLk6GJQsqaUBKTNV-1">
          <mxGeometry x="600" y="180" width="160" height="86" as="geometry" />
        </mxCell>
        <mxCell id="WZ-kVXEVeXFs6_7SI9vU-2" value="" style="line;strokeWidth=1;fillColor=none;align=left;verticalAlign=middle;spacingTop=-1;spacingLeft=3;spacingRight=3;rotatable=0;labelPosition=right;points=[];portConstraint=eastwest;" vertex="1" parent="WZ-kVXEVeXFs6_7SI9vU-0">
          <mxGeometry y="26" width="160" height="8" as="geometry" />
        </mxCell>
        <mxCell id="WZ-kVXEVeXFs6_7SI9vU-3" value="+ attack()" style="text;strokeColor=none;fillColor=none;align=left;verticalAlign=top;spacingLeft=4;spacingRight=4;overflow=hidden;rotatable=0;points=[[0,0.5],[1,0.5]];portConstraint=eastwest;" vertex="1" parent="WZ-kVXEVeXFs6_7SI9vU-0">
          <mxGeometry y="34" width="160" height="26" as="geometry" />
        </mxCell>
        <mxCell id="WZ-kVXEVeXFs6_7SI9vU-4" value="+ move()" style="text;strokeColor=none;fillColor=none;align=left;verticalAlign=top;spacingLeft=4;spacingRight=4;overflow=hidden;rotatable=0;points=[[0,0.5],[1,0.5]];portConstraint=eastwest;" vertex="1" parent="WZ-kVXEVeXFs6_7SI9vU-0">
          <mxGeometry y="60" width="160" height="26" as="geometry" />
        </mxCell>
        <mxCell id="WZ-kVXEVeXFs6_7SI9vU-23" value="Vulture" style="swimlane;fontStyle=1;align=center;verticalAlign=top;childLayout=stackLayout;horizontal=1;startSize=26;horizontalStack=0;resizeParent=1;resizeParentMax=0;resizeLast=0;collapsible=1;marginBottom=0;" vertex="1" parent="WIyWlLk6GJQsqaUBKTNV-1">
          <mxGeometry x="430" y="330" width="160" height="112" as="geometry" />
        </mxCell>
        <mxCell id="WZ-kVXEVeXFs6_7SI9vU-24" value="+ category: String" style="text;strokeColor=none;fillColor=none;align=left;verticalAlign=top;spacingLeft=4;spacingRight=4;overflow=hidden;rotatable=0;points=[[0,0.5],[1,0.5]];portConstraint=eastwest;" vertex="1" parent="WZ-kVXEVeXFs6_7SI9vU-23">
          <mxGeometry y="26" width="160" height="26" as="geometry" />
        </mxCell>
        <mxCell id="WZ-kVXEVeXFs6_7SI9vU-25" value="" style="line;strokeWidth=1;fillColor=none;align=left;verticalAlign=middle;spacingTop=-1;spacingLeft=3;spacingRight=3;rotatable=0;labelPosition=right;points=[];portConstraint=eastwest;" vertex="1" parent="WZ-kVXEVeXFs6_7SI9vU-23">
          <mxGeometry y="52" width="160" height="8" as="geometry" />
        </mxCell>
        <mxCell id="WZ-kVXEVeXFs6_7SI9vU-26" value="+ attack()" style="text;strokeColor=none;fillColor=none;align=left;verticalAlign=top;spacingLeft=4;spacingRight=4;overflow=hidden;rotatable=0;points=[[0,0.5],[1,0.5]];portConstraint=eastwest;" vertex="1" parent="WZ-kVXEVeXFs6_7SI9vU-23">
          <mxGeometry y="60" width="160" height="26" as="geometry" />
        </mxCell>
        <mxCell id="WZ-kVXEVeXFs6_7SI9vU-31" value="+ move()" style="text;strokeColor=none;fillColor=none;align=left;verticalAlign=top;spacingLeft=4;spacingRight=4;overflow=hidden;rotatable=0;points=[[0,0.5],[1,0.5]];portConstraint=eastwest;" vertex="1" parent="WZ-kVXEVeXFs6_7SI9vU-23">
          <mxGeometry y="86" width="160" height="26" as="geometry" />
        </mxCell>
        <mxCell id="WZ-kVXEVeXFs6_7SI9vU-32" value="Tank" style="swimlane;fontStyle=1;align=center;verticalAlign=top;childLayout=stackLayout;horizontal=1;startSize=26;horizontalStack=0;resizeParent=1;resizeParentMax=0;resizeLast=0;collapsible=1;marginBottom=0;" vertex="1" parent="WIyWlLk6GJQsqaUBKTNV-1">
          <mxGeometry x="600" y="330" width="160" height="112" as="geometry" />
        </mxCell>
        <mxCell id="WZ-kVXEVeXFs6_7SI9vU-33" value="+ category: String" style="text;strokeColor=none;fillColor=none;align=left;verticalAlign=top;spacingLeft=4;spacingRight=4;overflow=hidden;rotatable=0;points=[[0,0.5],[1,0.5]];portConstraint=eastwest;" vertex="1" parent="WZ-kVXEVeXFs6_7SI9vU-32">
          <mxGeometry y="26" width="160" height="26" as="geometry" />
        </mxCell>
        <mxCell id="WZ-kVXEVeXFs6_7SI9vU-34" value="" style="line;strokeWidth=1;fillColor=none;align=left;verticalAlign=middle;spacingTop=-1;spacingLeft=3;spacingRight=3;rotatable=0;labelPosition=right;points=[];portConstraint=eastwest;" vertex="1" parent="WZ-kVXEVeXFs6_7SI9vU-32">
          <mxGeometry y="52" width="160" height="8" as="geometry" />
        </mxCell>
        <mxCell id="WZ-kVXEVeXFs6_7SI9vU-35" value="+ attack()" style="text;strokeColor=none;fillColor=none;align=left;verticalAlign=top;spacingLeft=4;spacingRight=4;overflow=hidden;rotatable=0;points=[[0,0.5],[1,0.5]];portConstraint=eastwest;" vertex="1" parent="WZ-kVXEVeXFs6_7SI9vU-32">
          <mxGeometry y="60" width="160" height="26" as="geometry" />
        </mxCell>
        <mxCell id="WZ-kVXEVeXFs6_7SI9vU-36" value="+ move()" style="text;strokeColor=none;fillColor=none;align=left;verticalAlign=top;spacingLeft=4;spacingRight=4;overflow=hidden;rotatable=0;points=[[0,0.5],[1,0.5]];portConstraint=eastwest;" vertex="1" parent="WZ-kVXEVeXFs6_7SI9vU-32">
          <mxGeometry y="86" width="160" height="26" as="geometry" />
        </mxCell>
        <mxCell id="WZ-kVXEVeXFs6_7SI9vU-37" value="Goliath" style="swimlane;fontStyle=1;align=center;verticalAlign=top;childLayout=stackLayout;horizontal=1;startSize=26;horizontalStack=0;resizeParent=1;resizeParentMax=0;resizeLast=0;collapsible=1;marginBottom=0;" vertex="1" parent="WIyWlLk6GJQsqaUBKTNV-1">
          <mxGeometry x="770" y="330" width="160" height="112" as="geometry" />
        </mxCell>
        <mxCell id="WZ-kVXEVeXFs6_7SI9vU-38" value="+ category: String" style="text;strokeColor=none;fillColor=none;align=left;verticalAlign=top;spacingLeft=4;spacingRight=4;overflow=hidden;rotatable=0;points=[[0,0.5],[1,0.5]];portConstraint=eastwest;" vertex="1" parent="WZ-kVXEVeXFs6_7SI9vU-37">
          <mxGeometry y="26" width="160" height="26" as="geometry" />
        </mxCell>
        <mxCell id="WZ-kVXEVeXFs6_7SI9vU-39" value="" style="line;strokeWidth=1;fillColor=none;align=left;verticalAlign=middle;spacingTop=-1;spacingLeft=3;spacingRight=3;rotatable=0;labelPosition=right;points=[];portConstraint=eastwest;" vertex="1" parent="WZ-kVXEVeXFs6_7SI9vU-37">
          <mxGeometry y="52" width="160" height="8" as="geometry" />
        </mxCell>
        <mxCell id="WZ-kVXEVeXFs6_7SI9vU-40" value="+ attack()" style="text;strokeColor=none;fillColor=none;align=left;verticalAlign=top;spacingLeft=4;spacingRight=4;overflow=hidden;rotatable=0;points=[[0,0.5],[1,0.5]];portConstraint=eastwest;" vertex="1" parent="WZ-kVXEVeXFs6_7SI9vU-37">
          <mxGeometry y="60" width="160" height="26" as="geometry" />
        </mxCell>
        <mxCell id="WZ-kVXEVeXFs6_7SI9vU-41" value="+ move()" style="text;strokeColor=none;fillColor=none;align=left;verticalAlign=top;spacingLeft=4;spacingRight=4;overflow=hidden;rotatable=0;points=[[0,0.5],[1,0.5]];portConstraint=eastwest;" vertex="1" parent="WZ-kVXEVeXFs6_7SI9vU-37">
          <mxGeometry y="86" width="160" height="26" as="geometry" />
        </mxCell>
        <mxCell id="WZ-kVXEVeXFs6_7SI9vU-42" value="Factory" style="swimlane;fontStyle=1;align=center;verticalAlign=top;childLayout=stackLayout;horizontal=1;startSize=26;horizontalStack=0;resizeParent=1;resizeParentMax=0;resizeLast=0;collapsible=1;marginBottom=0;" vertex="1" parent="WIyWlLk6GJQsqaUBKTNV-1">
          <mxGeometry x="150" y="180" width="160" height="86" as="geometry" />
        </mxCell>
        <mxCell id="WZ-kVXEVeXFs6_7SI9vU-43" value="" style="line;strokeWidth=1;fillColor=none;align=left;verticalAlign=middle;spacingTop=-1;spacingLeft=3;spacingRight=3;rotatable=0;labelPosition=right;points=[];portConstraint=eastwest;" vertex="1" parent="WZ-kVXEVeXFs6_7SI9vU-42">
          <mxGeometry y="26" width="160" height="8" as="geometry" />
        </mxCell>
        <mxCell id="WZ-kVXEVeXFs6_7SI9vU-44" value="+ create()" style="text;strokeColor=none;fillColor=none;align=left;verticalAlign=top;spacingLeft=4;spacingRight=4;overflow=hidden;rotatable=0;points=[[0,0.5],[1,0.5]];portConstraint=eastwest;" vertex="1" parent="WZ-kVXEVeXFs6_7SI9vU-42">
          <mxGeometry y="34" width="160" height="26" as="geometry" />
        </mxCell>
        <mxCell id="WZ-kVXEVeXFs6_7SI9vU-45" value="+ createUnit()" style="text;strokeColor=none;fillColor=none;align=left;verticalAlign=top;spacingLeft=4;spacingRight=4;overflow=hidden;rotatable=0;points=[[0,0.5],[1,0.5]];portConstraint=eastwest;" vertex="1" parent="WZ-kVXEVeXFs6_7SI9vU-42">
          <mxGeometry y="60" width="160" height="26" as="geometry" />
        </mxCell>
        <mxCell id="WZ-kVXEVeXFs6_7SI9vU-50" value="Munitions Factory" style="swimlane;fontStyle=1;align=center;verticalAlign=top;childLayout=stackLayout;horizontal=1;startSize=26;horizontalStack=0;resizeParent=1;resizeParentMax=0;resizeLast=0;collapsible=1;marginBottom=0;" vertex="1" parent="WIyWlLk6GJQsqaUBKTNV-1">
          <mxGeometry x="150" y="330" width="160" height="112" as="geometry" />
        </mxCell>
        <mxCell id="WZ-kVXEVeXFs6_7SI9vU-51" value="+ category: String" style="text;strokeColor=none;fillColor=none;align=left;verticalAlign=top;spacingLeft=4;spacingRight=4;overflow=hidden;rotatable=0;points=[[0,0.5],[1,0.5]];portConstraint=eastwest;" vertex="1" parent="WZ-kVXEVeXFs6_7SI9vU-50">
          <mxGeometry y="26" width="160" height="26" as="geometry" />
        </mxCell>
        <mxCell id="WZ-kVXEVeXFs6_7SI9vU-52" value="" style="line;strokeWidth=1;fillColor=none;align=left;verticalAlign=middle;spacingTop=-1;spacingLeft=3;spacingRight=3;rotatable=0;labelPosition=right;points=[];portConstraint=eastwest;" vertex="1" parent="WZ-kVXEVeXFs6_7SI9vU-50">
          <mxGeometry y="52" width="160" height="8" as="geometry" />
        </mxCell>
        <mxCell id="WZ-kVXEVeXFs6_7SI9vU-53" value="+ attack()" style="text;strokeColor=none;fillColor=none;align=left;verticalAlign=top;spacingLeft=4;spacingRight=4;overflow=hidden;rotatable=0;points=[[0,0.5],[1,0.5]];portConstraint=eastwest;" vertex="1" parent="WZ-kVXEVeXFs6_7SI9vU-50">
          <mxGeometry y="60" width="160" height="26" as="geometry" />
        </mxCell>
        <mxCell id="WZ-kVXEVeXFs6_7SI9vU-54" value="+ move()" style="text;strokeColor=none;fillColor=none;align=left;verticalAlign=top;spacingLeft=4;spacingRight=4;overflow=hidden;rotatable=0;points=[[0,0.5],[1,0.5]];portConstraint=eastwest;" vertex="1" parent="WZ-kVXEVeXFs6_7SI9vU-50">
          <mxGeometry y="86" width="160" height="26" as="geometry" />
        </mxCell>
        <mxCell id="WZ-kVXEVeXFs6_7SI9vU-55" value="Create" style="html=1;verticalAlign=bottom;endArrow=block;rounded=0;exitX=1;exitY=0.25;exitDx=0;exitDy=0;entryX=0;entryY=0.25;entryDx=0;entryDy=0;" edge="1" parent="WIyWlLk6GJQsqaUBKTNV-1" source="WZ-kVXEVeXFs6_7SI9vU-42" target="WZ-kVXEVeXFs6_7SI9vU-0">
          <mxGeometry width="80" relative="1" as="geometry">
            <mxPoint x="470" y="400" as="sourcePoint" />
            <mxPoint x="550" y="400" as="targetPoint" />
          </mxGeometry>
        </mxCell>
        <mxCell id="WZ-kVXEVeXFs6_7SI9vU-56" value="" style="html=1;verticalAlign=bottom;endArrow=block;rounded=0;exitX=0.5;exitY=0;exitDx=0;exitDy=0;" edge="1" parent="WIyWlLk6GJQsqaUBKTNV-1" source="WZ-kVXEVeXFs6_7SI9vU-50" target="WZ-kVXEVeXFs6_7SI9vU-45">
          <mxGeometry width="80" relative="1" as="geometry">
            <mxPoint x="470" y="400" as="sourcePoint" />
            <mxPoint x="550" y="400" as="targetPoint" />
          </mxGeometry>
        </mxCell>
        <mxCell id="WZ-kVXEVeXFs6_7SI9vU-57" value="" style="html=1;verticalAlign=bottom;endArrow=block;rounded=0;exitX=0.5;exitY=0;exitDx=0;exitDy=0;entryX=0.5;entryY=1.038;entryDx=0;entryDy=0;entryPerimeter=0;" edge="1" parent="WIyWlLk6GJQsqaUBKTNV-1" source="WZ-kVXEVeXFs6_7SI9vU-23" target="WZ-kVXEVeXFs6_7SI9vU-4">
          <mxGeometry width="80" relative="1" as="geometry">
            <mxPoint x="240" y="340" as="sourcePoint" />
            <mxPoint x="680" y="270" as="targetPoint" />
          </mxGeometry>
        </mxCell>
        <mxCell id="WZ-kVXEVeXFs6_7SI9vU-58" value="" style="html=1;verticalAlign=bottom;endArrow=block;rounded=0;exitX=0.5;exitY=0;exitDx=0;exitDy=0;" edge="1" parent="WIyWlLk6GJQsqaUBKTNV-1" source="WZ-kVXEVeXFs6_7SI9vU-32">
          <mxGeometry width="80" relative="1" as="geometry">
            <mxPoint x="250" y="350" as="sourcePoint" />
            <mxPoint x="680" y="270" as="targetPoint" />
          </mxGeometry>
        </mxCell>
        <mxCell id="WZ-kVXEVeXFs6_7SI9vU-59" value="" style="html=1;verticalAlign=bottom;endArrow=block;rounded=0;exitX=0.5;exitY=0;exitDx=0;exitDy=0;entryX=0.513;entryY=1.038;entryDx=0;entryDy=0;entryPerimeter=0;" edge="1" parent="WIyWlLk6GJQsqaUBKTNV-1" source="WZ-kVXEVeXFs6_7SI9vU-37" target="WZ-kVXEVeXFs6_7SI9vU-4">
          <mxGeometry width="80" relative="1" as="geometry">
            <mxPoint x="690" y="340" as="sourcePoint" />
            <mxPoint x="690" y="280" as="targetPoint" />
          </mxGeometry>
        </mxCell>
        <mxCell id="WZ-kVXEVeXFs6_7SI9vU-60" value="Create" style="html=1;verticalAlign=bottom;endArrow=block;rounded=0;exitX=0.5;exitY=1.115;exitDx=0;exitDy=0;exitPerimeter=0;edgeStyle=orthogonalEdgeStyle;entryX=0.5;entryY=1.115;entryDx=0;entryDy=0;entryPerimeter=0;" edge="1" parent="WIyWlLk6GJQsqaUBKTNV-1" source="WZ-kVXEVeXFs6_7SI9vU-54" target="WZ-kVXEVeXFs6_7SI9vU-31">
          <mxGeometry width="80" relative="1" as="geometry">
            <mxPoint x="230" y="520" as="sourcePoint" />
            <mxPoint x="510" y="470" as="targetPoint" />
            <Array as="points">
              <mxPoint x="230" y="610" />
              <mxPoint x="510" y="610" />
            </Array>
          </mxGeometry>
        </mxCell>
        <mxCell id="WZ-kVXEVeXFs6_7SI9vU-61" value="" style="html=1;verticalAlign=bottom;endArrow=block;rounded=0;exitX=0.5;exitY=1;exitDx=0;exitDy=0;exitPerimeter=0;edgeStyle=orthogonalEdgeStyle;entryX=0.513;entryY=1;entryDx=0;entryDy=0;entryPerimeter=0;" edge="1" parent="WIyWlLk6GJQsqaUBKTNV-1" source="WZ-kVXEVeXFs6_7SI9vU-54" target="WZ-kVXEVeXFs6_7SI9vU-36">
          <mxGeometry width="80" relative="1" as="geometry">
            <mxPoint x="240" y="452" as="sourcePoint" />
            <mxPoint x="690" y="460" as="targetPoint" />
            <Array as="points">
              <mxPoint x="230" y="610" />
              <mxPoint x="682" y="610" />
            </Array>
          </mxGeometry>
        </mxCell>
        <mxCell id="WZ-kVXEVeXFs6_7SI9vU-62" value="" style="html=1;verticalAlign=bottom;endArrow=block;rounded=0;exitX=0.5;exitY=1.115;exitDx=0;exitDy=0;exitPerimeter=0;edgeStyle=orthogonalEdgeStyle;" edge="1" parent="WIyWlLk6GJQsqaUBKTNV-1">
          <mxGeometry width="80" relative="1" as="geometry">
            <mxPoint x="230" y="442" as="sourcePoint" />
            <mxPoint x="850" y="445" as="targetPoint" />
            <Array as="points">
              <mxPoint x="230" y="610" />
              <mxPoint x="850" y="610" />
            </Array>
          </mxGeometry>
        </mxCell>
      </root>
    </mxGraphModel>
  </diagram>
</mxfile>
